:SAMPLES-PER-SECOND 30
:FULLY-SPECIFIED
:DEGREES
524
root  -2.73201 40.9633 0.442597 -9.25797 -88.4157 9.39929
RightUpLeg  4.57558 -2.10049 -2.24139
RightLeg  -3.27632 -20.1063 1.41927
RightFoot  0.0359645 -0.360331 3.67291
RightToes  -3.11842e-008 1.75238e-005 3.56266e-009
Spine  -4.67934 -0.939687 -3.01543
Spine1  0.177256 -1.03405 1.70786
HEad  -3.88789 -6.81134 7.06166
LeftShoulder1  3.26111 -7.30901 -23.9491
LeftArm  -25.5398 -30.832 -42.0281
LeftForeArm  -27.3291 -54.5089 -17.7834
LeftHand  0.106379 1.09283 -3.07338
RightShoulder  3.1645 7.42067 22.766
RightArm  -29.3313 24.6659 38.8167
RightForeArm  -18.3985 63.1643 24.9334
RightHand  -0.0410561 1.55916 -0.826203
LeftUpLeg  2.83265 0.945887 1.93469
LeftLeg  -3.01793 13.0606 -1.16983
LeftFoot  0.919056 0.242405 -2.35067
LeftToes  4.7713e-008 1.46693e-008 1.32589e-009
525
root  -2.76836 40.9642 0.460194 -10.8766 -88.8357 11.0468
RightUpLeg  4.63712 -2.09468 -2.25636
RightLeg  -3.45527 -19.6892 1.49074
RightFoot  0.0673878 -0.350874 3.52786
RightToes  -3.11842e-008 1.75238e-005 3.56266e-009
Spine  -4.89053 -0.955992 -2.89973
Spine1  -0.419411 -1.03484 1.63979
HEad  -4.05682 -5.86419 6.7704
LeftShoulder1  3.24335 -7.46587 -23.3214
LeftArm  -26.9294 -34.2846 -41.8484
LeftForeArm  -30.833 -47.7776 -14.1805
LeftHand  0.0938018 1.5306 -3.12482
RightShoulder  3.15209 7.50034 22.4178
RightArm  -30.1849 26.7963 38.1544
RightForeArm  -22.4095 59.7863 21.6807
RightHand  -0.146778 1.75497 -2.52895
LeftUpLeg  2.89337 0.993357 1.9493
LeftLeg  -2.97355 13.4633 -1.19182
LeftFoot  0.797869 0.245504 -2.41422
LeftToes  4.7713e-008 1.46693e-008 1.32589e-009
526
root  -2.8284 40.9586 0.488135 -17.6926 -89.348 17.6822
RightUpLeg  4.79246 -2.13632 -2.30929
RightLeg  -3.27961 -19.1053 1.38689
RightFoot  -0.0728053 -0.360288 3.68902
RightToes  -3.11842e-008 1.75238e-005 3.56266e-009
Spine  -5.42988 -0.963532 -2.75082
Spine1  -0.278758 -1.03578 1.57623
HEad  -4.50701 -4.99667 6.35638
LeftShoulder1  3.26862 -7.61039 -23.1521
LeftArm  -27.1732 -35.9562 -41.1261
LeftForeArm  -31.1347 -42.8321 -12.0615
LeftHand  0.0974269 1.23575 -2.95659
RightShoulder  3.17373 7.61129 22.3196
RightArm  -30.4023 28.1395 37.8522
RightForeArm  -26.4379 56.7275 19.3748
RightHand  -0.246718 2.29194 -3.93369
LeftUpLeg  3.20635 1.1094 1.95132
LeftLeg  -2.86291 13.8999 -1.24135
LeftFoot  0.534804 0.23863 -2.3275
LeftToes  4.7713e-008 1.46693e-008 1.32589e-009
527
root  -2.9025 40.954 0.519387 -45.6562 -89.7956 45.187
RightUpLeg  5.34135 -2.12913 -2.27842
RightLeg  -3.23957 -18.6783 1.25487
RightFoot  -0.138509 -0.362522 3.74747
RightToes  -3.11842e-008 1.75238e-005 3.56266e-009
Spine  -6.10171 -0.978104 -2.52507
Spine1  0.599715 -1.07896 1.58024
HEad  -5.51841 -5.11938 5.86724
LeftShoulder1  3.42388 -7.96342 -23.6313
LeftArm  -27.774 -36.2078 -40.3167
LeftForeArm  -32.1819 -40.3359 -11.1859
LeftHand  0.0834856 1.19451 -2.52224
RightShoulder  3.28452 7.88694 22.6174
RightArm  -30.7713 28.9449 37.478
RightForeArm  -28.6294 53.9191 17.5171
RightHand  -0.256697 2.23009 -4.08633
LeftUpLeg  3.76567 1.35542 2.06267
LeftLeg  -2.57554 14.0154 -1.27978
LeftFoot  0.187222 0.241273 -2.39548
LeftToes  4.7713e-008 1.46693e-008 1.32589e-009
528
root  -2.98659 40.9422 0.530721 -123.255 -89.8057 122.026
RightUpLeg  6.19383 -2.20988 -2.27742
RightLeg  -3.05798 -18.2185 1.13346
RightFoot  -0.378008 -0.356682 3.6847
RightToes  -3.11842e-008 1.75238e-005 3.56266e-009
Spine  -6.57236 -0.991273 -2.17018
Spine1  1.67631 -1.04154 1.04497
HEad  -6.56954 -4.28877 6.10205
LeftShoulder1  3.45823 -8.13806 -23.4679
LeftArm  -29.7844 -35.4721 -41.2661
LeftForeArm  -32.6395 -39.4855 -10.9082
LeftHand  0.0574606 1.48444 -1.98507
RightShoulder  3.40186 8.08189 23.1771
RightArm  -31.5553 28.8897 37.7968
RightForeArm  -30.6097 51.9791 16.4235
RightHand  -0.19998 1.74528 -3.41904
LeftUpLeg  4.62794 1.52773 2.12715
LeftLeg  -2.22196 14.1122 -1.14916
LeftFoot  -0.220948 0.247694 -2.53082
LeftToes  4.7713e-008 1.46693e-008 1.32589e-009
529
root  -3.06037 40.9314 0.556449 179.608 -89.1673 178.393
RightUpLeg  6.85664 -2.30628 -2.36176
RightLeg  -2.58573 -17.4326 0.859808
RightFoot  -0.678539 -0.364176 3.84736
RightToes  -3.11842e-008 1.75238e-005 3.56266e-009
Spine  -7.13299 -0.883108 -1.78328
Spine1  2.97788 -0.905201 0.647608
HEad  -7.88949 -3.72702 6.11206
LeftShoulder1  3.56396 -8.30526 -23.965
LeftArm  -32.0826 -34.1615 -41.5794
LeftForeArm  -32.6587 -39.9057 -11.0586
LeftHand  0.0555562 1.66054 -2.04808
RightShoulder  3.55336 8.35532 23.8056
RightArm  -31.5847 28.8156 37.8125
RightForeArm  -33.1624 50.7438 15.8459
RightHand  -0.269797 1.85511 -4.49407
LeftUpLeg  5.69473 1.69517 2.10549
LeftLeg  -2.25767 14.5792 -1.17542
LeftFoot  -0.495812 0.244763 -2.54739
LeftToes  4.7713e-008 1.46693e-008 1.32589e-009
